HIERARCHY
ROOT Pelvis
{
	OFFSET 0.000000 0.000000 0.000000
	CHANNELS 6 Xposition Yposition Zposition Xrotation Yrotation Zrotation
	JOINT LeftUpLeg_virtual
	{
		OFFSET 0.000000 0.000000 0.000000
		CHANNELS 3 Xrotation Yrotation Zrotation
		JOINT LeftUpLeg
		{
			OFFSET 18.735201 -5.666702 -4.541200
			CHANNELS 3 Xrotation Yrotation Zrotation
			JOINT LeftLeg
			{
				OFFSET -0.021200 -31.938179 0.493100
				CHANNELS 3 Xrotation Yrotation Zrotation
				JOINT LeftFoot
				{
					OFFSET 0.021200 -31.938179 -4.336299
					CHANNELS 3 Xrotation Yrotation Zrotation
					JOINT LeftToeBase
					{
						OFFSET 0.943001 -26.722000 15.023500
						CHANNELS 3 Xrotation Yrotation Zrotation
						End Site
						{
							OFFSET 0 0 0
						}
					}
				}
			}
		}
	}
	JOINT RightUpLeg_virtual
	{
		OFFSET 0.000000 0.000000 0.000000
		CHANNELS 3 Xrotation Yrotation Zrotation
		JOINT RightUpLeg
		{
			OFFSET -18.735201 -5.666702 -4.541200
			CHANNELS 3 Xrotation Yrotation Zrotation
			JOINT RightLeg
			{
				OFFSET 0.018946 -31.938133 0.493100
				CHANNELS 3 Xrotation Yrotation Zrotation
				JOINT RightFoot
				{
					OFFSET -0.018946 -31.938126 -4.336299
					CHANNELS 3 Xrotation Yrotation Zrotation
					JOINT RightToeBase
					{
						OFFSET -0.943001 -26.722004 15.023500
						CHANNELS 3 Xrotation Yrotation Zrotation
						End Site
						{
							OFFSET 0 0 0
						}
					}
				}
			}
		}
	}
	JOINT Hips_virtual
	{
		OFFSET 0.000000 0.000000 0.000000
		CHANNELS 3 Xrotation Yrotation Zrotation
		JOINT Hips
		{
			OFFSET -0.000000 -0.000000 -0.000000
			CHANNELS 3 Xrotation Yrotation Zrotation
			JOINT Spine
			{
				OFFSET 0.000000 10.199997 -0.299500
				CHANNELS 3 Xrotation Yrotation Zrotation
				JOINT Spine1
				{
					OFFSET 0.000000 11.900002 -1.516600
					CHANNELS 3 Xrotation Yrotation Zrotation
					JOINT Spine2
					{
						OFFSET 0.000000 13.600006 -2.842500
						CHANNELS 3 Xrotation Yrotation Zrotation
						JOINT Neck_virtual
						{
							OFFSET 0.000000 0.000000 0.000000
							CHANNELS 3 Xrotation Yrotation Zrotation
							JOINT Neck
							{
								OFFSET 0.000000 9.624100 -2.890100
								CHANNELS 3 Xrotation Yrotation Zrotation
								JOINT Head
								{
									OFFSET 0.000000 14.068802 -1.351900
									CHANNELS 3 Xrotation Yrotation Zrotation
									End Site
									{
										OFFSET 0 0 0
									}
								}
							}
						}
						JOINT LeftShoulder_virtual
						{
							OFFSET 0.000000 0.000000 0.000000
							CHANNELS 3 Xrotation Yrotation Zrotation
							JOINT LeftShoulder
							{
								OFFSET 15.263000 10.923401 -0.547700
								CHANNELS 3 Xrotation Yrotation Zrotation
								JOINT LeftArm
								{
									OFFSET 25.438599 -2.830597 -13.032500
									CHANNELS 3 Xrotation Yrotation Zrotation
									JOINT LeftForeArm
									{
										OFFSET 29.960503 0.000000 0.000000
										CHANNELS 3 Xrotation Yrotation Zrotation
										JOINT LeftHand
										{
											OFFSET 27.849251 0.000000 0.000000
											CHANNELS 3 Xrotation Yrotation Zrotation
											End Site
											{
												OFFSET 0 0 0
											}
										}
									}
								}
							}
						}
						JOINT RightShoulder_virtual
						{
							OFFSET 0.000000 0.000000 0.000000
							CHANNELS 3 Xrotation Yrotation Zrotation
							JOINT RightShoulder
							{
								OFFSET -15.263000 10.923401 -0.547700
								CHANNELS 3 Xrotation Yrotation Zrotation
								JOINT RightArm
								{
									OFFSET -25.438599 -2.830597 -13.032500
									CHANNELS 3 Xrotation Yrotation Zrotation
									JOINT RightForeArm
									{
										OFFSET -29.960503 0.000000 0.000000
										CHANNELS 3 Xrotation Yrotation Zrotation
										JOINT RightHand
										{
											OFFSET -27.849251 0.000000 0.000000
											CHANNELS 3 Xrotation Yrotation Zrotation
											End Site
											{
												OFFSET 0 0 0
											}
										}
									}
								}
							}
						}
					}
				}
			}
		}
	}
}
MOTION
Frames: 11
Frame Time: 0.03333333
-0.600918 93.284050 0.980715 0.000000 0.000000 0.000000 7.018185 -17.371237 -0.382430 -32.461014 6.935480 14.710014 33.806684 4.099571 -1.402516 -13.680988 4.889587 -4.703253 0.000000 0.000000 0.000000 10.946637 -8.197165 1.661138 -15.714899 -8.368215 -14.095341 30.445787 3.978878 -0.487022 -17.888317 0.078303 12.804247 0.000000 0.000000 0.000000 1.131692 -14.908624 1.216926 7.369150 -8.125914 1.956955 7.675679 -1.084382 -0.000603 2.230812 -0.587883 -0.140749 0.000000 0.000000 0.000000 0.982699 2.335850 -0.126603 -1.226989 1.930410 -0.540851 0.000000 0.000000 0.000000 1.541748 -0.394278 1.869735 0.624235 -7.049815 0.465476 -37.757897 -12.846531 -37.383995 -9.800947 -56.575905 -2.210144 0.000000 0.000000 0.000000 4.310323 -0.885100 1.257570 3.446542 4.625545 9.207483 14.592793 -0.527041 49.041004 7.902416 34.081281 -0.052421 0.000000 0.000000 0.000000 
-0.201424 93.076302 1.562376 0.000000 0.000000 0.000000 6.434839 -19.002042 -0.271038 -33.212580 6.368504 14.725113 33.259012 3.810407 -1.496957 -14.192795 4.658428 -5.095120 0.000000 0.000000 0.000000 10.770557 -7.597140 1.918381 -15.911679 -8.242645 -13.692990 29.574593 3.794406 -0.511499 -18.764398 -0.198634 12.516544 0.000000 0.000000 0.000000 0.110323 -15.542075 0.569658 7.488331 -5.952074 2.043916 7.071952 -0.907898 -0.219131 1.897851 -0.098904 0.122365 0.000000 0.000000 0.000000 1.160005 2.464677 -0.145715 -1.089874 2.106755 -0.540945 0.000000 0.000000 0.000000 0.884332 -0.339857 1.951113 1.190808 -6.176035 0.351172 -39.145108 -13.088874 -38.302775 -10.003994 -57.426742 -2.891855 0.000000 0.000000 0.000000 4.035647 -0.462981 1.231144 3.453597 6.274436 9.368091 16.581993 -0.730025 47.496869 8.542343 34.410715 -0.656201 0.000000 0.000000 0.000000 
-0.172937 92.979942 2.002588 0.000000 0.000000 0.000000 6.099546 -19.292943 -0.478741 -33.573525 6.298839 14.512916 33.002443 3.765763 -1.418973 -14.349558 4.607872 -5.056412 0.000000 0.000000 0.000000 10.808751 -6.488873 1.638765 -15.725469 -7.882505 -13.838271 29.471057 3.750963 -0.466078 -18.939353 -0.281931 12.500042 0.000000 0.000000 0.000000 2.132924 -13.950331 1.819766 4.165273 -3.459199 1.693115 8.483442 -1.102566 -0.710575 1.702292 -0.153612 0.469645 0.000000 0.000000 0.000000 1.625034 2.293085 -0.020283 -1.075031 2.155806 -0.586165 0.000000 0.000000 0.000000 1.004667 -0.184794 2.031183 1.536173 -7.042492 0.082967 -38.814667 -16.529292 -37.668835 -9.101233 -58.450553 -2.338550 0.000000 0.000000 0.000000 4.187684 -0.487067 1.343923 3.992342 5.283340 9.042280 20.103572 -1.842678 47.033096 9.227761 32.741058 -1.152179 0.000000 0.000000 0.000000 
-0.458188 92.808479 1.978418 0.000000 0.000000 0.000000 6.833366 -17.663866 -0.039456 -33.155466 6.753397 15.263413 34.418942 3.210361 -1.399647 -13.158934 4.007795 -5.379222 0.000000 0.000000 0.000000 11.287805 -5.067671 1.808052 -14.888974 -7.613405 -13.392133 30.293228 3.346921 -0.525618 -18.327284 -0.591593 12.179441 0.000000 0.000000 0.000000 0.963767 -12.089385 0.815507 5.388139 -4.868294 0.927429 7.042157 -0.269801 -0.291099 1.628136 0.797316 0.265741 0.000000 0.000000 0.000000 1.779846 2.569975 0.037025 -0.971342 2.084664 -0.594509 0.000000 0.000000 0.000000 1.353523 0.320910 1.830346 1.234528 -4.923696 0.088762 -39.222088 -16.254590 -37.473570 -9.348174 -59.665862 -2.767676 0.000000 0.000000 0.000000 4.416807 0.319733 1.292401 3.868302 6.918490 9.935636 20.193212 0.292252 46.153210 9.523615 33.486966 -1.254124 0.000000 0.000000 0.000000 
-0.281683 92.784866 1.160700 0.000000 0.000000 0.000000 6.553268 -16.398280 -0.427111 -33.355232 7.106462 15.024371 34.605573 2.817124 -1.191972 -12.974342 3.502757 -5.312376 0.000000 0.000000 0.000000 11.111581 -3.550752 1.967560 -15.080892 -7.220721 -12.976902 30.292005 2.851335 -0.423645 -18.476985 -1.169469 12.010510 0.000000 0.000000 0.000000 2.782146 -9.212828 0.905454 5.057685 -4.689978 2.099009 6.973366 0.733613 -0.824984 0.754625 1.177108 0.519899 0.000000 0.000000 0.000000 2.111972 2.367629 -0.189851 -0.989577 2.110740 -0.716073 0.000000 0.000000 0.000000 1.504768 0.480750 2.085932 1.328446 -3.842655 0.310015 -40.213196 -17.762225 -37.095994 -9.863530 -61.151346 -3.212421 0.000000 0.000000 0.000000 4.224264 0.568751 1.425451 4.169346 8.151948 9.565931 22.034318 -1.103239 46.230924 9.935184 34.864496 -1.408366 0.000000 0.000000 0.000000 
-0.701469 92.345757 1.409754 0.000000 0.000000 0.000000 6.045891 -16.409827 -0.954032 -33.744693 7.146481 14.484576 35.848306 1.921398 -1.022008 -11.904756 2.470736 -5.614536 0.000000 0.000000 0.000000 11.003487 -2.816694 1.962816 -15.150060 -6.993070 -12.842872 29.867437 1.586071 -0.089256 -18.831328 -2.645080 11.723861 0.000000 0.000000 0.000000 1.093083 -10.093292 0.691441 5.434762 -2.733170 0.633988 5.929139 1.131714 -0.493677 1.081338 2.052271 0.765519 0.000000 0.000000 0.000000 0.916291 2.526204 -0.041043 -1.219167 1.971539 -0.602675 0.000000 0.000000 0.000000 1.363522 1.020946 1.871696 1.496739 -3.232607 0.689643 -39.850503 -16.554166 -35.673105 -8.250219 -61.149850 -1.714870 0.000000 0.000000 0.000000 4.627781 1.003255 1.215411 4.624562 8.603612 8.691624 23.766668 0.655257 44.459429 11.767399 33.041095 -2.222609 0.000000 0.000000 0.000000 
-0.221318 92.203300 2.455875 0.000000 0.000000 0.000000 6.224550 -16.146139 -0.660325 -33.406489 7.106200 14.732663 36.941625 1.238473 -0.894864 -11.011206 1.684517 -5.869658 0.000000 0.000000 0.000000 11.403023 -1.516456 2.305430 -14.248683 -6.746529 -12.130769 30.099783 0.627207 0.321080 -18.571226 -3.777925 11.784539 0.000000 0.000000 0.000000 0.893527 -6.417297 0.264893 3.877861 -3.435709 1.008159 5.616947 2.450661 -0.713732 1.266744 1.985684 0.632382 0.000000 0.000000 0.000000 1.784886 2.726357 -0.029374 -0.921382 1.977408 -0.556724 0.000000 0.000000 0.000000 1.110212 1.704478 1.637455 0.991379 -2.608692 0.324374 -41.983216 -15.033414 -37.412525 -11.058075 -62.264250 -4.604545 0.000000 0.000000 0.000000 4.572894 1.371974 0.920552 4.630010 8.198005 8.173434 25.306122 -0.417975 42.802924 12.001831 31.591425 -2.563584 0.000000 0.000000 0.000000 
-0.029106 92.387108 2.248066 0.000000 0.000000 0.000000 5.796241 -16.004796 -0.454166 -33.875628 6.917333 14.977930 37.597992 0.171477 -0.869678 -10.569976 0.600828 -6.535431 0.000000 0.000000 0.000000 10.910143 -1.069734 2.382497 -14.800031 -6.586968 -11.925103 29.699292 -0.659730 0.590448 -18.704698 -5.147075 11.384887 0.000000 0.000000 0.000000 0.755154 -7.233467 -0.303508 5.219172 -1.114989 -0.095013 6.109960 3.529097 -0.316778 0.724388 2.670831 0.519559 0.000000 0.000000 0.000000 1.823999 2.657372 0.100364 -0.955477 1.707219 -0.348587 0.000000 0.000000 0.000000 1.458430 2.171605 1.551002 1.039456 -0.789295 0.574112 -42.335684 -14.767767 -38.251706 -12.750288 -65.014522 -5.993712 0.000000 0.000000 0.000000 5.129869 2.010879 0.508327 4.261928 9.340226 7.609312 27.128147 -1.364507 42.116285 12.964449 31.069766 -2.916014 0.000000 0.000000 0.000000 
-0.002440 92.217079 3.004820 0.000000 0.000000 0.000000 5.954049 -15.451093 -0.513362 -33.468630 7.080309 14.867305 38.307580 -0.552863 -0.414733 -10.037590 -0.380861 -6.298116 0.000000 0.000000 0.000000 11.168362 0.322763 2.743344 -14.287245 -6.322610 -11.292975 28.643722 -1.741567 0.803727 -19.570686 -6.379387 11.040202 0.000000 0.000000 0.000000 1.658926 -4.157857 -0.135735 4.749979 -1.796927 -0.636045 5.941293 4.175484 -0.455378 0.721023 3.152374 0.682408 0.000000 0.000000 0.000000 1.694548 2.342989 -0.003662 -1.023443 1.330393 -0.305063 0.000000 0.000000 0.000000 1.310705 2.761291 1.273705 0.928188 -0.138685 0.325549 -43.389644 -14.064867 -40.481070 -14.715962 -65.883773 -8.348196 0.000000 0.000000 0.000000 5.245052 2.257359 0.261931 4.508874 9.319240 6.713006 28.235194 -1.011931 40.343100 13.722893 29.774932 -3.218351 0.000000 0.000000 0.000000 
0.096587 92.154007 2.941364 0.000000 0.000000 0.000000 5.912026 -14.391542 -0.896357 -33.361974 7.437116 14.531221 37.831178 -1.299532 -0.331121 -10.214116 -1.178721 -6.645996 0.000000 0.000000 0.000000 10.931358 0.783721 2.798470 -14.389887 -6.168940 -11.068285 27.664175 -2.770152 1.138767 -20.176048 -7.609811 10.940769 0.000000 0.000000 0.000000 2.258064 -0.739369 -0.058332 4.592433 -1.002664 -0.556468 6.274535 5.384624 -0.409622 0.966047 3.786098 0.718234 0.000000 0.000000 0.000000 1.732152 2.258430 0.117919 -1.086905 0.996534 -0.181521 0.000000 0.000000 0.000000 1.487075 3.559870 1.179657 0.965403 1.477655 -0.232955 -43.698393 -12.497732 -41.989128 -17.826334 -67.265083 -11.441093 0.000000 0.000000 0.000000 5.538227 2.865357 0.233694 4.082522 9.614815 6.660567 28.440923 -1.397782 40.772333 13.926945 27.789106 -2.621540 0.000000 0.000000 0.000000 
0.060996 91.611359 3.704372 0.000000 0.000000 0.000000 5.795932 -14.287296 -1.533889 -33.298248 7.654535 13.817981 37.924605 -2.198097 -0.164762 -10.119880 -2.172890 -6.967921 0.000000 0.000000 0.000000 11.108627 0.729306 2.466024 -14.160880 -6.152879 -11.440822 28.107555 -4.151596 1.329342 -19.816764 -9.004673 10.437163 0.000000 0.000000 0.000000 2.668200 3.030419 -0.442699 4.274117 -1.498890 -0.081628 6.405792 6.320972 -0.354385 0.956481 4.290225 0.895287 0.000000 0.000000 0.000000 1.541935 2.050993 0.293388 -1.240464 0.599787 0.101803 0.000000 0.000000 0.000000 1.470531 4.241078 1.011827 0.550443 2.830742 -0.313854 -45.269240 -10.507537 -45.019129 -22.200857 -69.720973 -15.843300 0.000000 0.000000 0.000000 5.303306 3.341100 0.254139 3.382592 9.483828 8.289906 27.746001 -2.008307 41.669813 13.225512 26.642159 -1.545992 0.000000 0.000000 0.000000 
